<svg width="32" height="32" viewBox="0 0 32 32" xmlns="http://www.w3.org/2000/svg">
  <defs>
    <linearGradient id="gradient" x1="0%" y1="0%" x2="100%" y2="100%">
      <stop offset="0%" style="stop-color:#8b5cf6;stop-opacity:1" />
      <stop offset="100%" style="stop-color:#000000;stop-opacity:1" />
    </linearGradient>
  </defs>

  <!-- Background circle -->
  <circle cx="16" cy="16" r="14" fill="url(#gradient)" stroke="#8b5cf6" stroke-width="1"/>

  <!-- Game controller shape -->
  <path d="M8 12 Q8 10 10 10 L22 10 Q24 10 24 12 L24 16 Q24 18 22 18 L10 18 Q8 18 8 16 Z" fill="#ffffff"/>

  <!-- D-pad -->
  <rect x="10" y="13" width="2" height="2" fill="#8b5cf6"/>
  <rect x="11" y="12" width="2" height="1" fill="#8b5cf6"/>
  <rect x="11" y="15" width="2" height="1" fill="#8b5cf6"/>

  <!-- Action buttons -->
  <circle cx="19" cy="13" r="1" fill="#8b5cf6"/>
  <circle cx="21" cy="15" r="1" fill="#8b5cf6"/>

  <!-- Sync arrows -->
  <path d="M14 22 Q16 20 18 22" stroke="#8b5cf6" stroke-width="1.5" fill="none" stroke-linecap="round"/>
  <path d="M13 23 L14 22 L15 23" stroke="#8b5cf6" stroke-width="1" fill="none" stroke-linecap="round"/>
  <path d="M17 23 L18 22 L19 23" stroke="#8b5cf6" stroke-width="1" fill="none" stroke-linecap="round"/>
</svg>